{"title":"Blue Valentine 2010 DvDScr x264 Feel-Free","uid":6110692,"size":1141625342,"categoryP":"video","categoryS":"movies","magnet":"?xt=urn:btih:675f12b08d2555baf6c6ddeff867fa9e0da2c73e&amp;dn=Blue+Valentine+2010+DvDScr+x264+Feel-Free&amp;tr=udp%3A%2F%2Ftracker.openbittorrent.com%3A80&amp;tr=udp%3A%2F%2Fopen.demonii.com%3A1337&amp;tr=udp%3A%2F%2Ftracker.coppersurfer.tk%3A6969&amp;tr=udp%3A%2F%2Fexodus.desync.com%3A6969","seeders":0,"leechers":0,"uploader":"neon","files":-1,"time":1295341143,"description":"Genre: Drama | Romance\nLanguage:English\n &lt;a href=&quot; http://www.imdb.com/title/tt1120985/&quot; rel=&quot;nofollow&quot; target=&quot;_NEW&quot;&gt; http://www.imdb.com/title/tt1120985/&lt;/a&gt;\nSource:Demedic Thx.\n\n\nFormat : Matroska\nFile size : 1.06 GiB\nDuration : 1h 52mn\nOverall bit rate : 1 356 Kbps\n\n\nVideo\nFormat settings, CABAC : Yes\nFormat settings, ReFrames : 4 frames\nFormat settings, GOP : M=4, N=16\nCodec ID : V_MPEG4/ISO/AVC\nDuration : 1h 52mn\nBit rate : 899 Kbps\nWidth : 720 pixels\nHeight : 390 pixels\nDisplay aspect ratio : 16:9\nFrame rate mode : Variable\nFrame rate : 23.976 fps\nColor space : YUV\nChroma subsampling : 4:2:0\nBit depth : 8 bits\nScan type : Progressive\nBits/(Pixel*Frame) : 0.134\nStream size : 706 MiB (65%)\nWriting library : x264\n\n\nAudio\nID : 2\nFormat : AC-3\nFormat/Info : Audio Coding 3\nMode extension : CM (complete main)\nCodec ID : A_AC3\nDuration : 1h 52mn\nBit rate mode : Constant\nBit rate : 448 Kbps\nChannel(s) : 6 channels\nChannel positions : Front: L C R, Side: L R, LFE\nSampling rate : 48.0 KHz\nBit depth : 16 bits\nVideo delay : -1mn 5s\nStream size : 359 MiB (33%)\nLanguage : English\n\n\nPlot:\nThe film centers on a contemporary married couple, charting their evolution over a span of years by cross-cutting between time periods.\n &lt;a href=&quot;\nhttp://shareimage.org/images/3s6j481mugkjhdnq9pn.png&quot; rel=&quot;nofollow&quot; target=&quot;_NEW&quot;&gt;\nhttp://shareimage.org/images/3s6j481mugkjhdnq9pn.png&lt;/a&gt; &lt;a href=&quot;\nhttp://shareimage.org/images/852nenaf9t8hoi4aeue1.png&quot; rel=&quot;nofollow&quot; target=&quot;_NEW&quot;&gt;\nhttp://shareimage.org/images/852nenaf9t8hoi4aeue1.png&lt;/a&gt; &lt;a href=&quot;\nhttp://shareimage.org/images/enifogyrzf9jfjpfh1sm.png&quot; rel=&quot;nofollow&quot; target=&quot;_NEW&quot;&gt;\nhttp://shareimage.org/images/enifogyrzf9jfjpfh1sm.png&lt;/a&gt;","torrent":{"xt":"urn:btih:675f12b08d2555baf6c6ddeff867fa9e0da2c73e","amp;dn":"Blue+Valentine+2010+DvDScr+x264+Feel-Free","amp;tr":["udp%3A%2F%2Ftracker.openbittorrent.com%3A80","udp%3A%2F%2Fopen.demonii.com%3A1337","udp%3A%2F%2Ftracker.coppersurfer.tk%3A6969","udp%3A%2F%2Fexodus.desync.com%3A6969"],"infoHash":"675f12b08d2555baf6c6ddeff867fa9e0da2c73e","infoHashBuffer":{"type":"Buffer","data":[103,95,18,176,141,37,85,186,246,198,221,239,248,103,250,158,13,162,199,62]},"announce":[],"urlList":[]}}